<?xml version="1.0" encoding="utf-8"?>
<!DOCTYPE svg PUBLIC "-//W3C//DTD SVG 1.1//EN" "http://www.w3.org/Graphics/SVG/1.1/DTD/svg11.dtd">
<svg version="1.1" id="图形" xmlns="http://www.w3.org/2000/svg" xmlns:xlink="http://www.w3.org/1999/xlink" x="0px" y="0px" width="1024px" height="1024px" viewBox="0 0 1024 1024" enable-background="new 0 0 1024 1024" xml:space="preserve">
  <path fill="#ffbd47" d="M877.216 320.192M512-115.424c-10.336 0-20.032 4.992-26.016 13.408l-64.896 90.848C213.344 25.408 64 181.6 64 364.576c0 211.744 200.96 384 448 384 247.04 0 448-172.256 448-384 0-183.008-149.344-339.168-357.056-375.712l-64.896-90.88C532.032-110.432 522.336-115.424 512-115.424L512-115.424zM512 684.576c-211.744 0-384-143.552-384-320 0-154.976 132.928-287.328 316.064-314.656 8.576-1.28 16.288-6.016 21.312-13.056L512-28.352l46.624 65.248c5.024 7.072 12.704 11.776 21.312 13.056C763.072 77.248 896 209.568 896 364.576 896 541.024 723.744 684.576 512 684.576L512 684.576zM288.032 300.576c-35.296 0-64 28.704-64 64 0 35.296 28.704 64 64 64 35.296 0 64-28.704 64-64C352.032 329.28 323.328 300.576 288.032 300.576L288.032 300.576zM288.064 364.576 288 364.576l0.032-32L288.064 364.576 288.064 364.576zM736.032 300.576c-35.296 0-64 28.704-64 64 0 35.296 28.704 64 64 64 35.296 0 64-28.704 64-64C800.032 329.28 771.328 300.576 736.032 300.576L736.032 300.576zM736.064 364.576 736 364.576l0.032-32L736.064 364.576 736.064 364.576zM512.032 300.576c-35.296 0-64 28.704-64 64 0 35.296 28.704 64 64 64s64-28.704 64-64C576.032 329.28 547.328 300.576 512.032 300.576L512.032 300.576zM512.064 364.576 512 364.576l0.032-32L512.064 364.576 512.064 364.576zM512.064 364.576" transform="translate(0, 812) scale(1, -1)"/>
</svg>
