<?xml version="1.0" encoding="utf-8"?>
<!DOCTYPE svg PUBLIC "-//W3C//DTD SVG 1.1//EN" "http://www.w3.org/Graphics/SVG/1.1/DTD/svg11.dtd">
<svg version="1.1" id="图形" xmlns="http://www.w3.org/2000/svg" xmlns:xlink="http://www.w3.org/1999/xlink" x="0px" y="0px" width="1024px" height="1024px" viewBox="0 0 1024 1024" enable-background="new 0 0 1024 1024" xml:space="preserve">
  <path fill="#777" d="M512 737.216c-123.712 0-224-100.288-224-224s100.288-224 224-224c123.712 0 224 100.288 224 224s-100.288 224-224 224zM512 353.216c-88.352 0-160 71.648-160 160s71.648 160 160 160c88.352 0 160-71.648 160-160s-71.616-160-160-160zM959.328-64.992c-17.12 231.808-211.168 415.648-447.328 415.648-246.528 0-446.4-199.136-447.872-445.344 0-0.416-0.128-0.864-0.128-1.312 0-0.16 0.032-0.288 0.032-0.448 0-0.288-0.032-0.576-0.032-0.896l0.16-0.128c0.8-34.656 28.992-62.528 63.84-62.528 1.184 0 2.304 0.288 3.488 0.352l0.384-0.352h670.688c18.048 0 32.672 14.336 32.672 32s-14.624 32-32.672 32h-643.2c-31.36 0-40.032-1.344-25.44 63.392 30.816 181.184 188.128 319.264 378.080 319.264 200.832 0 365.376-154.24 382.304-350.656h-0.192c0.896-10.24 1.696-20.544 1.76-31.008h0.128v-35.2h0.448c1.184-16.576 14.656-29.792 31.552-29.792s30.368 13.216 31.552 29.792h0.448l-0.832 65.184z" transform="translate(0, 812) scale(1, -1)"/>
</svg>
